#define e27c81daf48343fb9b57d5ce5adcf971BnmPanYZSR0bNMW0_width 11
#define e27c81daf48343fb9b57d5ce5adcf971BnmPanYZSR0bNMW0_height 25
static char e27c81daf48343fb9b57d5ce5adcf971BnmPanYZSR0bNMW0_bits[] = {
  0x38, 0x00, 0x7E, 0x00, 0xC7, 0x00, 0x83, 0x00, 0x83, 0x00, 0x87, 0x00, 
  0x8F, 0x01, 0x1F, 0x01, 0x17, 0x03, 0xC3, 0x01, 0x87, 0x01, 0x03, 0x01, 
  0x0B, 0x01, 0xA7, 0x01, 0x01, 0x01, 0x0F, 0x01, 0x8B, 0x01, 0x07, 0x01, 
  0x8F, 0x01, 0x17, 0x01, 0x0B, 0x01, 0x17, 0x01, 0x4B, 0x01, 0x37, 0x01, 
  0xFF, 0x01, };
